<?xml version="1.0" encoding="UTF-8" standalone="no"?>
<svg
   xmlns:dc="http://purl.org/dc/elements/1.1/"
   xmlns:cc="http://creativecommons.org/ns#"
   xmlns:rdf="http://www.w3.org/1999/02/22-rdf-syntax-ns#"
   xmlns:svg="http://www.w3.org/2000/svg"
   xmlns="http://www.w3.org/2000/svg"
   id="svg4412"
   version="1.1"
   viewBox="0 0 35.630305 35.630307"
   height="35.630306mm"
   width="35.630306mm">
  <defs
     id="defs4406">
    <clipPath
       id="clipPath1556"
       clipPathUnits="userSpaceOnUse">
      <path
         id="path1554"
         d="m 242.762,448.246 h 35.55 v -71.091 h -35.55 z" />
    </clipPath>
    <clipPath
       id="clipPath1708"
       clipPathUnits="userSpaceOnUse">
      <path
         id="path1706"
         d="M 365.557,372.594 H 455.07 V 359.197 H 365.557 Z" />
    </clipPath>
    <clipPath
       id="clipPath1300"
       clipPathUnits="userSpaceOnUse">
      <path
         id="path1298"
         d="m 367.886,300.778 h 65.195 V 235.58 h -65.195 z" />
    </clipPath>
    <clipPath
       id="clipPath1372"
       clipPathUnits="userSpaceOnUse">
      <path
         id="path1370"
         d="M 363.392,237.141 H 403.03 V 205.229 H 363.392 Z" />
    </clipPath>
    <clipPath
       id="clipPath1616"
       clipPathUnits="userSpaceOnUse">
      <path
         id="path1614"
         d="M 57.2368,150.854 H 130.65 V 77.4414 H 57.2368 Z" />
    </clipPath>
    <clipPath
       id="clipPath664"
       clipPathUnits="userSpaceOnUse">
      <path
         id="path662"
         d="m 262.361,66.1875 h 30.868 V 44.2773 h -30.868 z" />
    </clipPath>
    <clipPath
       id="clipPath680"
       clipPathUnits="userSpaceOnUse">
      <path
         id="path678"
         d="m 206.024,83.7422 h 33.13 v -18.583 h -33.13 z" />
    </clipPath>
    <clipPath
       id="clipPath786"
       clipPathUnits="userSpaceOnUse">
      <path
         id="path784"
         d="m 61,448.16 h 64.61 v -70.1 H 61 Z" />
    </clipPath>
    <clipPath
       id="clipPath1064"
       clipPathUnits="userSpaceOnUse">
      <path
         id="path1062"
         d="m 170,444.75 h 70.24 V 377.41 H 170 Z" />
    </clipPath>
    <clipPath
       id="clipPath1120"
       clipPathUnits="userSpaceOnUse">
      <path
         id="path1118"
         d="m 289.83,436.26 h 63.56 v -58.67 h -63.56 z" />
    </clipPath>
    <clipPath
       id="clipPath1158"
       clipPathUnits="userSpaceOnUse">
      <path
         id="path1156"
         d="m 402.08,432.49 h 65.86 v -54.83 h -65.86 z" />
    </clipPath>
    <clipPath
       id="clipPath1182"
       clipPathUnits="userSpaceOnUse">
      <path
         id="path1180"
         d="M 397.86,434.26 H 430.9 V 409.1 h -33.04 z" />
    </clipPath>
    <clipPath
       id="clipPath32"
       clipPathUnits="userSpaceOnUse">
      <path
         id="path30"
         d="m 54.02,326.01 h 70.94 V 260.67 H 54.02 Z" />
    </clipPath>
    <clipPath
       id="clipPath824"
       clipPathUnits="userSpaceOnUse">
      <path
         id="path822"
         d="m 175.93,327.18 h 64.13 v -65.26 h -64.13 z" />
    </clipPath>
    <clipPath
       id="clipPath844"
       clipPathUnits="userSpaceOnUse">
      <path
         id="path842"
         d="m 183.243,324.715 h 25.326 v -33.647 h -25.326 z" />
    </clipPath>
    <clipPath
       id="clipPath908"
       clipPathUnits="userSpaceOnUse">
      <path
         id="path906"
         d="m 197.267,316.041 h 19.948 v -35.416 h -19.948 z" />
    </clipPath>
    <clipPath
       id="clipPath124"
       clipPathUnits="userSpaceOnUse">
      <path
         id="path122"
         d="m 291.95,324.64 h 62.06 v -63.89 h -62.06 z" />
    </clipPath>
    <clipPath
       id="clipPath146"
       clipPathUnits="userSpaceOnUse">
      <path
         id="path144"
         d="m 283.858,324.585 h 46.95 v -27.81 h -46.95 z" />
    </clipPath>
    <clipPath
       id="clipPath166"
       clipPathUnits="userSpaceOnUse">
      <path
         id="path164"
         d="m 286.145,322.192 h 3.077 v -3.077 h -3.077 z" />
    </clipPath>
    <clipPath
       id="clipPath182"
       clipPathUnits="userSpaceOnUse">
      <path
         id="path180"
         d="m 286.145,318.236 h 3.077 v -8.572 h -3.077 z" />
    </clipPath>
    <clipPath
       id="clipPath202"
       clipPathUnits="userSpaceOnUse">
      <path
         id="path200"
         d="m 396.97,320.9 h 70.44 v -60.11 h -70.44 z" />
    </clipPath>
    <clipPath
       id="clipPath228"
       clipPathUnits="userSpaceOnUse">
      <path
         id="path226"
         d="m 394.101,323.768 h 56.548 v -8.047 h -56.548 z" />
    </clipPath>
    <clipPath
       id="clipPath244"
       clipPathUnits="userSpaceOnUse">
      <path
         id="path242"
         d="m 419.483,308.056 h 5.784 v -2.671 h -5.784 z" />
    </clipPath>
    <clipPath
       id="clipPath260"
       clipPathUnits="userSpaceOnUse">
      <path
         id="path258"
         d="m 402.132,315.721 h 42.336 v -1.704 h -42.336 z" />
    </clipPath>
    <clipPath
       id="clipPath280"
       clipPathUnits="userSpaceOnUse">
      <path
         id="path278"
         d="m 395.92,295.074 h 2.318 v -2.318 h -2.318 z" />
    </clipPath>
    <clipPath
       id="clipPath300"
       clipPathUnits="userSpaceOnUse">
      <path
         id="path298"
         d="m 394.101,323.768 h 5.939 v -8.047 h -5.939 z" />
    </clipPath>
    <clipPath
       id="clipPath316"
       clipPathUnits="userSpaceOnUse">
      <path
         id="path314"
         d="m 444.711,323.768 h 5.938 v -8.047 h -5.938 z" />
    </clipPath>
    <clipPath
       id="clipPath332"
       clipPathUnits="userSpaceOnUse">
      <path
         id="path330"
         d="m 395.92,303.125 h 2.318 v -6.698 h -2.318 z" />
    </clipPath>
    <clipPath
       id="clipPath352"
       clipPathUnits="userSpaceOnUse">
      <path
         id="path350"
         d="M 58.7202,214.67 H 124.85 V 144.13 H 58.7202 Z" />
    </clipPath>
    <clipPath
       id="clipPath412"
       clipPathUnits="userSpaceOnUse">
      <path
         id="path410"
         d="m 178.09,206.33 h 62.17 v -61.92 h -62.17 z" />
    </clipPath>
    <clipPath
       id="clipPath492"
       clipPathUnits="userSpaceOnUse">
      <path
         id="path490"
         d="m 168.416,211.7 h 48.869 v -48.869 h -48.869 z" />
    </clipPath>
    <clipPath
       id="clipPath512"
       clipPathUnits="userSpaceOnUse">
      <path
         id="path510"
         d="m 292.86,214.17 h 60.71 v -70.04 h -60.71 z" />
    </clipPath>
    <clipPath
       id="clipPath540"
       clipPathUnits="userSpaceOnUse">
      <path
         id="path538"
         d="m 316.605,206.967 h 5.836 v -5.836 h -5.836 z" />
    </clipPath>
    <clipPath
       id="clipPath556"
       clipPathUnits="userSpaceOnUse">
      <path
         id="path554"
         d="m 319.69,200.173 h 2.688 v -2.688 h -2.688 z" />
    </clipPath>
    <clipPath
       id="clipPath576"
       clipPathUnits="userSpaceOnUse">
      <path
         id="path574"
         d="m 400.11,199.1 h 67.03 v -54.95 h -67.03 z" />
    </clipPath>
    <clipPath
       id="clipPath622"
       clipPathUnits="userSpaceOnUse">
      <path
         id="path620"
         d="m 400.113,186.467 h 46.373 v -17.886 h -46.373 z" />
    </clipPath>
    <clipPath
       id="clipPath686"
       clipPathUnits="userSpaceOnUse">
      <path
         id="path684"
         d="M 59.7002,91.4805 H 124.46 V 27.8398 H 59.7002 Z" />
    </clipPath>
    <clipPath
       id="clipPath658"
       clipPathUnits="userSpaceOnUse">
      <path
         id="path656"
         d="M 166.031,86 H 238.72 V 27.46 h -72.689 z" />
    </clipPath>
    <clipPath
       id="clipPath742"
       clipPathUnits="userSpaceOnUse">
      <path
         id="path740"
         d="m 283.17,88.8896 h 70.28 V 27.46 h -70.28 z" />
    </clipPath>
  </defs>
  <metadata
     id="metadata4409">
    <rdf:RDF>
      <cc:Work
         rdf:about="">
        <dc:format>image/svg+xml</dc:format>
        <dc:type
           rdf:resource="http://purl.org/dc/dcmitype/StillImage" />
        <dc:title></dc:title>
      </cc:Work>
    </rdf:RDF>
  </metadata>
  <g
     transform="translate(48.411927,17.614294)"
     id="layer1">
    <g
       id="g4174"
       transform="matrix(0.35277777,0,0,-0.35277777,-139.02842,26.703253)">
      <g
         id="g732"
         transform="translate(355.0303,75.1299)">
        <path
           d="m 0,0 c 0,-4.22 -0.55,-8.31 -1.58,-12.2 -5.38,-20.42 -23.97,-35.47 -46.08,-35.47 -0.771,0 -1.53,0.021 -2.29,0.05 -25.271,1.2 -45.38,22.06 -45.38,47.62 0,26.32 21.34,47.66 47.67,47.66 C -21.34,47.66 0,26.32 0,0"
           style="fill:#ffcd02;fill-opacity:1;fill-rule:nonzero;stroke:none"
           id="path734" />
      </g>
      <g
         id="g736">
        <g
           id="g738" />
        <g
           id="g750">
          <g
             clip-path="url(#clipPath742)"
             id="g748"
             style="opacity:0.5">
            <g
               transform="translate(353.4502,62.9297)"
               id="g746">
              <path
                 d="m 0,0 c -5.38,-20.42 -23.97,-35.47 -46.08,-35.47 -0.771,0 -1.53,0.021 -2.29,0.05 l -21.91,24.99 48.389,36.39 z"
                 style="fill:#ffa800;fill-opacity:1;fill-rule:nonzero;stroke:none"
                 id="path744" />
            </g>
          </g>
        </g>
      </g>
      <path
         d="m 331.564,52.5 h -48.398 v 27.678 h 48.398 z"
         style="fill:#79302a;fill-opacity:1;fill-rule:nonzero;stroke:none"
         id="path752" />
      <path
         d="m 331.564,75.584 h -48.398 v 13.302 h 48.398 z"
         style="fill:#662621;fill-opacity:1;fill-rule:nonzero;stroke:none"
         id="path754" />
      <path
         d="m 309.99,72.553 h -5.25 v 6 h 5.25 z"
         style="fill:#cccccc;fill-opacity:1;fill-rule:nonzero;stroke:none"
         id="path756" />
      <path
         d="m 309.99,72.553 h -5.25 v 3.041 h 5.25 z"
         style="fill:#e6e6e6;fill-opacity:1;fill-rule:nonzero;stroke:none"
         id="path758" />
      <g
         id="g760"
         transform="translate(308.3027,75.584)">
        <path
           d="m 0,0 c 0,-0.518 -0.42,-0.938 -0.938,-0.938 -0.517,0 -0.937,0.42 -0.937,0.938 0,0.518 0.42,0.938 0.937,0.938 C -0.42,0.938 0,0.518 0,0"
           style="fill:#b3b3b3;fill-opacity:1;fill-rule:nonzero;stroke:none"
           id="path762" />
      </g>
      <g
         id="g764"
         transform="translate(316.5947,94.417)">
        <path
           d="m 0,0 h -0.001 -18.457 c -0.668,0 -1.209,-0.541 -1.209,-1.208 v -4.323 h 2.417 v 3.488 h 16.041 v -3.488 h 2.417 v 4.323 C 1.208,-0.541 0.667,0 0,0"
           style="fill:#2b2b2b;fill-opacity:1;fill-rule:nonzero;stroke:none"
           id="path766" />
      </g>
      <g
         id="g768"
         transform="translate(287.0625,54.875)">
        <path
           d="m 0,0 c 0,-0.656 -0.531,-1.188 -1.188,-1.188 -0.656,0 -1.187,0.532 -1.187,1.188 0,0.656 0.531,1.188 1.187,1.188 C -0.531,1.188 0,0.656 0,0"
           style="fill:#662621;fill-opacity:1;fill-rule:nonzero;stroke:none"
           id="path770" />
      </g>
      <g
         id="g772"
         transform="translate(330.0625,54.875)">
        <path
           d="m 0,0 c 0,-0.656 -0.531,-1.188 -1.188,-1.188 -0.656,0 -1.187,0.532 -1.187,1.188 0,0.656 0.531,1.188 1.187,1.188 C -0.531,1.188 0,0.656 0,0"
           style="fill:#662621;fill-opacity:1;fill-rule:nonzero;stroke:none"
           id="path774" />
      </g>
    </g>
  </g>
</svg>
